<svg xmlns="http://www.w3.org/2000/svg" version="1.1" xmlns:xlink="http://www.w3.org/1999/xlink" id="Layer_1" viewBox="0 0 1024 1024" width="1024" height="1024"><metadata><rdf:RDF xmlns:rdf="http://www.w3.org/1999/02/22-rdf-syntax-ns#" xmlns:dc="http://purl.org/dc/elements/1.1/"><rdf:Description><dc:creator>RealFaviconGenerator</dc:creator><dc:source>https://realfavicongenerator.net</dc:source></rdf:Description></rdf:RDF></metadata><defs>
    <style>
      .st0 {
        fill: none;
      }

      .st1 {
        fill: #588157;
      }

      .st2 {
        font-family: EduNSWACTFoundation-Medium, 'Edu NSW ACT Foundation';
        font-size: 64px;
        font-weight: 500;
      }

      .st3 {
        fill: #009;
      }

      .st4 {
        fill: silver;
      }

      .st5 {
        fill: #6d916c;
      }
    </style>
    <path id="path" d="M512,1015.69S15.22,847.32,53.86,173.92L478.88,8.33v82.8l-135.23,55.2,135.23,55.2v80.04l-234.59-99.36s-115.91,38.64-115.91,41.4-30.36,516.09,383.62,706.52c413.98-190.43,383.62-703.76,383.62-706.52s-115.91-41.4-115.91-41.4l-234.59,99.36v-80.04l135.23-55.2-135.23-55.2V8.33l425.02,165.6c38.64,673.41-458.14,841.76-458.14,841.76Z"></path>
  </defs><g>
    <path class="st3" d="M509.7,943.38c-1.16.51-2.07,1.16-2.76,1.95-.68.79-1.04,1.65-1.08,2.59,0,.6.17,1.34.51,2.24.34.9.78,1.82,1.31,2.78.53.96,1.1,1.91,1.7,2.85.08.13.16.25.24.37.85-.57,1.64-1.12,2.38-1.66v-11.76c-.83.12-1.6.33-2.3.64Z"></path>
    <path class="st3" d="M507.14,987.41c-2.39,0-4.49-.53-6.31-1.6-1.81-1.07-3.25-2.49-4.32-4.26-1.07-1.77-1.66-3.7-1.79-5.79-.17-2.43.28-4.74,1.34-6.91,1.07-2.18,2.52-4.15,4.36-5.92,1.53-1.48,3.13-2.8,4.82-3.96-.48-.8-1.07-1.75-1.78-2.86-.79-1.23-1.48-2.57-2.05-4-.58-1.43-.82-2.82-.74-4.19.13-1.75.78-3.39,1.95-4.93,1.18-1.53,2.78-2.79,4.8-3.77,1.4-.68,2.93-1.1,4.58-1.28v-7.81C98.02,739.7,128.38,226.37,128.38,223.61s115.91-41.4,115.91-41.4l234.59,99.36v-80.04l-135.23-55.2,135.23-55.2V8.33L53.86,173.92c-38.64,673.4,458.14,841.77,458.14,841.77v-28.93c-1.49.42-3.1.65-4.86.65Z"></path>
    <path class="st3" d="M507.64,962.89c-1.2.89-2.3,1.87-3.32,2.95-1.37,1.45-2.44,2.98-3.23,4.58-.79,1.6-1.14,3.21-1.06,4.83.13,2.17.92,3.93,2.37,5.28,1.45,1.34,3.26,2.01,5.44,2.01,1.52,0,2.91-.31,4.16-.89v-11.66l-4.36-7.1Z"></path>
    <path class="st4" d="M516.71,977.65l-4.71-7.66v11.66c.33-.15.65-.31.96-.51,1.29-.81,2.54-1.97,3.75-3.49Z"></path>
    <path class="st4" d="M518.59,945.87c-.08-.89-.49-1.66-1.21-2.3-.73-.64-1.97-.96-3.72-.96-.58,0-1.13.05-1.66.13v11.76c1.7-1.24,3.09-2.42,4.16-3.54,1.79-1.86,2.6-3.55,2.43-5.09Z"></path>
    <path class="st4" d="M970.14,173.93L545.12,8.33v82.8l135.23,55.2-135.23,55.2v80.04l234.59-99.36s115.91,38.64,115.91,41.4,30.36,516.09-383.62,706.52v7.81c.74-.09,1.5-.14,2.3-.13,1.8,0,3.41.29,4.84.86,1.43.58,2.59,1.38,3.48,2.4.9,1.03,1.35,2.28,1.35,3.78.08,1.7-.29,3.36-1.12,4.96-.83,1.6-2.16,3.25-3.97,4.96-1.75,1.65-4.04,3.42-6.86,5.31l7.96,12.85c.59-.93,1.19-1.93,1.81-2.99.47-.73,1.07-1.21,1.79-1.44.73-.24,1.41-.16,2.05.22.77.47,1.18,1.07,1.22,1.79.04.73-.17,1.43-.64,2.11-1.08,1.9-2.16,3.61-3.24,5.14l2.73,4.4c.51.85.8,1.69.86,2.5s-.29,1.47-1.06,1.98c-.72.47-1.47.53-2.24.19-.76-.34-1.38-.85-1.85-1.53l-1.95-3.18c-1.53,1.57-3.14,2.79-4.84,3.66-.81.41-1.7.72-2.62.98v28.93s496.78-168.35,458.14-841.76Z"></path>
    <path class="st4" d="M502.62,942.99c-1.17,1.54-1.82,3.18-1.95,4.93-.08,1.37.16,2.76.74,4.19.57,1.43,1.26,2.77,2.05,4,.71,1.11,1.3,2.06,1.78,2.86-1.69,1.16-3.29,2.48-4.82,3.96-1.84,1.77-3.29,3.74-4.36,5.92-1.06,2.17-1.51,4.48-1.34,6.91.13,2.09.72,4.02,1.79,5.79,1.07,1.77,2.51,3.19,4.32,4.26,1.82,1.07,3.92,1.6,6.31,1.6,1.76,0,3.37-.24,4.86-.65v-5.11c-1.25.59-2.64.89-4.16.89-2.18,0-3.99-.67-5.44-2.01-1.45-1.35-2.24-3.11-2.37-5.28-.08-1.62.27-3.23,1.06-4.83.79-1.6,1.86-3.13,3.23-4.58,1.02-1.08,2.12-2.06,3.32-2.95l4.36,7.1v-15.49c-.74.54-1.53,1.09-2.38,1.66-.08-.12-.16-.24-.24-.37-.6-.94-1.17-1.89-1.7-2.85-.53-.96-.97-1.88-1.31-2.78-.34-.9-.51-1.64-.51-2.24.04-.94.4-1.8,1.08-2.59.69-.79,1.6-1.44,2.76-1.95.7-.32,1.47-.52,2.3-.64v-4.8c-1.65.19-3.18.6-4.58,1.28-2.02.98-3.62,2.24-4.8,3.77Z"></path>
    <path class="st3" d="M513.66,942.61c1.75,0,2.99.32,3.72.96.72.64,1.13,1.41,1.21,2.3.17,1.54-.64,3.23-2.43,5.09-1.07,1.12-2.46,2.29-4.16,3.54v15.49l4.71,7.66c-1.21,1.52-2.46,2.68-3.75,3.49-.31.19-.63.35-.96.51v5.11c.92-.26,1.81-.57,2.62-.98,1.7-.87,3.31-2.09,4.84-3.66l1.95,3.18c.47.68,1.09,1.19,1.85,1.53.77.34,1.52.28,2.24-.19.77-.51,1.12-1.17,1.06-1.98s-.35-1.65-.86-2.5l-2.73-4.4c1.08-1.53,2.16-3.24,3.24-5.14.47-.68.68-1.38.64-2.11-.04-.72-.45-1.32-1.22-1.79-.64-.38-1.32-.46-2.05-.22-.72.23-1.32.71-1.79,1.44-.62,1.06-1.22,2.06-1.81,2.99l-7.96-12.85c2.82-1.89,5.11-3.66,6.86-5.31,1.81-1.71,3.14-3.36,3.97-4.96.83-1.6,1.2-3.26,1.12-4.96,0-1.5-.45-2.75-1.35-3.78-.89-1.02-2.05-1.82-3.48-2.4-1.43-.57-3.04-.86-4.84-.86-.8-.01-1.56.04-2.3.13v4.8c.53-.08,1.08-.13,1.66-.13Z"></path>
  </g><g>
    <path class="st3" d="M353.81,334.54c1.15-3.12,2.77-5.31,4.85-6.58,2.08-1.27,5.08-1.9,9.01-1.9,4.27,0,7.27,1.04,9,3.12s2.6,6.35,2.6,12.81c0,11.32.11,21.85.35,31.6.23,9.76.35,14,.35,12.73,0,5.43-.93,9.09-2.77,11-1.85,1.9-5.14,2.86-9.87,2.86-7.62,0-12.58-5.43-14.89-16.28-.81-3.23-1.45-5.71-1.91-7.45-2.19-8.66-7.45-15.73-15.76-21.21-8.31-5.48-18.07-8.23-29.27-8.23-20.43,0-36.83,7.47-49.18,22.4-12.35,14.94-18.53,34.97-18.53,60.11s6.26,45.18,18.79,60.12c12.53,14.94,29.06,22.4,49.61,22.4,6.69,0,13.51-.95,20.43-2.86,6.93-1.91,13.74-4.76,20.43-8.57,3.12-1.62,7.39-4.36,12.81-8.23,5.43-3.87,9.29-5.8,11.6-5.8,3.58,0,6.61,1.18,9.09,3.55s3.72,5.28,3.72,8.75-1.36,6.79-4.07,9.96c-2.71,3.18-7.77,7.09-15.15,11.74-9.7,6.39-19.46,11.1-29.27,14.12s-20.15,4.53-31,4.53c-28.52,0-52.07-10.07-70.65-30.22-18.59-20.15-27.88-45.92-27.88-77.32s9.41-56.86,28.23-77.41,42.48-30.82,71-30.82c7.62,0,15.38.93,23.29,2.77,7.91,1.85,16.25,4.62,25.02,8.31h.02Z"></path>
    <path class="st3" d="M470.53,509.79h11.6c6.81,0,11.6.92,14.37,2.77s4.16,4.91,4.16,9.18c0,4.74-1.21,8-3.64,9.78-2.42,1.79-7.74,2.68-15.93,2.68h-45.72c-4.27,0-7.48-1.04-9.61-3.12-2.14-2.08-3.2-5.2-3.2-9.35,0-4.5,1.24-7.62,3.72-9.35,2.48-1.73,7.19-2.6,14.11-2.6h3.12v-156.03h-2.77c-6.93,0-11.69-.92-14.29-2.77-2.6-1.85-3.9-5.08-3.9-9.7,0-4.27,1.07-7.42,3.2-9.44s5.45-3.03,9.96-3.03h43.64c9.24,0,15.09.9,17.58,2.68,2.48,1.79,3.72,5.05,3.72,9.78s-1.56,7.85-4.68,9.7-9,2.77-17.66,2.77h-7.79v60.26h82.95v-60.26h-11.78c-6.58,0-11.29-.98-14.11-2.94-2.83-1.96-4.24-5.14-4.24-9.52,0-4.73,1.3-7.99,3.9-9.78,2.6-1.79,8.98-2.68,19.14-2.68h42.25c4.16,0,7.3,1.04,9.44,3.12,2.13,2.08,3.2,5.19,3.2,9.35,0,4.5-1.21,7.71-3.64,9.61-2.42,1.9-6.75,2.86-12.99,2.86h-4.16v156.03h2.77c6.93,0,11.66.9,14.2,2.68,2.54,1.79,3.81,4.88,3.81,9.26,0,4.74-1.21,8-3.64,9.78-2.42,1.79-8.03,2.68-16.8,2.68h-35.85c-9.35,0-15.3-.89-17.84-2.68-2.54-1.79-3.81-5.05-3.81-9.78s1.5-7.62,4.5-9.35c3-1.73,8.72-2.6,17.14-2.6h8.49v-72.04h-82.95v72.04h.03Z"></path>
    <path class="st3" d="M674.18,528.14c-.58,5.2-1.91,8.8-3.98,10.82-2.08,2.02-5.37,3.03-9.87,3.03-4.85,0-8.46-1.42-10.82-4.24-2.37-2.83-3.72-7.42-4.07-13.77l-2.25-40.18v-3.12c0-5.54,1.07-9.46,3.2-11.78,2.13-2.31,5.68-3.46,10.65-3.46,6.93,0,11.89,4.97,14.89,14.89,1.38,4.96,2.71,8.72,3.98,11.26,4.04,8.08,10.42,14.32,19.14,18.7,8.72,4.39,19.14,6.58,31.26,6.58,14.89,0,26.99-3.52,36.28-10.56,9.29-7.04,13.94-16.05,13.94-27.01,0-9.12-2.86-16.45-8.57-21.99-5.71-5.54-14.06-9.12-25.02-10.74l-25.63-3.46c-23.9-3.35-41.33-9.64-52.3-18.88-10.97-9.23-16.45-22.22-16.45-38.96,0-17.66,7.3-32.5,21.91-44.51,14.6-12.01,32.82-18.01,54.64-18.01,6.35,0,13.04.84,20.09,2.51,7.04,1.67,15.01,4.3,23.9,7.88.23-3.35,1.15-5.66,2.77-6.93s4.39-1.9,8.31-1.9c5.08,0,8.6.75,10.56,2.25s3.17,5.08,3.64,10.74l2.42,36.19v1.73c0,4.04-1.16,7.19-3.46,9.44-2.31,2.25-5.54,3.38-9.7,3.38-6.12,0-10.85-4.27-14.2-12.81-1.62-4.85-3.23-8.49-4.85-10.91-3.81-5.77-9.29-10.22-16.45-13.33-7.16-3.12-15.3-4.68-24.42-4.68-13.97,0-25.31,3.46-34.03,10.39-8.72,6.93-13.07,15.99-13.07,27.19,0,8.77,3.26,15.7,9.78,20.78s16.48,8.54,29.87,10.39l27.71,3.46c20.09,2.66,35.21,8.81,45.37,18.44,10.16,9.64,15.24,22.66,15.24,39.05,0,19.4-7.22,34.95-21.65,46.67-14.43,11.72-33.71,17.58-57.84,17.58-8.31,0-16.57-.98-24.76-2.94-8.2-1.96-16.91-5.02-26.15-9.18h-.01Z"></path>
  </g><g>
    <line class="st0" x1="561.92" y1="830.41" x2="447.92" y2="612.73"></line>
    <polygon class="st5" points="537.08 843.42 528.39 826.83 506.48 784.99 466.34 833.94 447.91 612.74 619.25 753.85 556.16 758.98 578.07 800.82 586.76 817.41 537.08 843.42"></polygon>
  </g><rect class="st1" x="548.7" y="600.34" width="42.99" height="42.99"></rect><rect class="st1" x="591.69" y="643.32" width="42.99" height="42.99"></rect><rect class="st4" x="634.68" y="686.31" width="42.99" height="42.99"></rect><rect class="st4" x="677.66" y="643.32" width="42.99" height="42.99"></rect><rect class="st4" x="634.68" y="600.34" width="42.99" height="42.99"></rect><text>
    <textPath startOffset="736.44%" xlink:href="#path"><tspan class="st2"><tspan class="st4" x="0" y="0">Web Design </tspan><tspan x="0" y="0" xml:space="preserve">   </tspan><tspan class="st3" x="0" y="0">Development</tspan></tspan>
    </textPath></text></svg>